<svg width="1000" height="467" viewBox="0 0 1000 467" fill="none" xmlns="http://www.w3.org/2000/svg">
<path d="M0 -1.91778e-05V467H1000V-1.91778e-05H0Z" fill="#B8BBE4"/>
<path d="M339.772 196.257C354.554 217.914 362.497 245.415 363.632 271.468C364.534 292.107 361.212 313.98 348.847 331.032C335.693 349.172 320.688 360.853 295.167 360.853C291.455 360.853 287.517 360.604 283.332 360.09C271.302 358.623 258.566 350.432 249.169 342.771C241.522 336.545 234.656 329.2 228.697 321.075C213.017 299.709 203.636 272.979 202.97 247.178C202.468 227.663 206.003 201.559 218.908 184.883C169.759 214.694 176.314 276.408 178.802 291.729C183.582 316.792 195.657 342.904 220.61 362.13C224.217 364.907 228.544 367.295 233.429 369.309C233.42 369.309 233.408 369.301 233.399 369.301C233.399 369.301 249.65 371.573 272.749 371.573C298.263 371.573 332.131 368.795 361.712 357.097C367.687 352.538 372.017 347.248 374.063 341.263C382.733 315.92 377.435 243.439 348.095 200.64C344.07 197.072 340.031 193.9 336.043 191.092C337.337 192.78 338.579 194.507 339.772 196.257Z" fill="white"/>
<path d="M279.143 323.828C279.157 323.828 279.059 323.77 278.824 323.678C279.017 323.778 279.131 323.828 279.143 323.828Z" fill="#AAAEDF"/>
<path d="M328.33 309.459C330.641 309.459 332.956 310.321 334.649 312.017C338.075 315.437 338 321.141 334.649 324.574C325.934 333.511 315.189 340.616 302.669 342.589C298.875 343.186 294.753 343.584 290.577 343.584C281.954 343.584 273.103 341.901 266.469 336.918C262.488 333.925 260.819 329.432 263.284 324.756C264.689 322.103 268.089 320.288 271.294 320.288C272.793 320.288 274.249 320.685 275.438 321.581C276.442 322.335 277.486 322.924 278.577 323.537C278.659 323.587 278.734 323.629 278.799 323.662C279.361 323.869 279.929 324.068 280.499 324.242C281.552 324.565 282.626 324.831 283.704 325.063C284.394 325.204 285.083 325.328 285.777 325.444C285.422 325.386 285.257 325.361 285.23 325.361C285.184 325.361 285.497 325.419 285.937 325.469C287.952 325.668 289.968 325.776 291.99 325.776C292.454 325.776 292.919 325.776 293.382 325.759C294.521 325.734 295.664 325.668 296.799 325.569C296.892 325.56 297.387 325.511 297.715 325.477C298.016 325.428 298.722 325.328 298.82 325.312C301.339 324.864 303.821 324.217 306.225 323.347C306.43 323.264 307.335 322.891 307.368 322.891C307.373 322.891 307.357 322.907 307.313 322.924C307.637 322.775 307.959 322.625 308.278 322.468C309.389 321.929 310.47 321.332 311.532 320.702C312.602 320.064 313.646 319.392 314.663 318.671C315.02 318.414 315.373 318.165 315.72 317.908C315.829 317.817 316.047 317.643 316.235 317.477C318.251 315.714 320.214 313.934 322.089 312.017C323.762 310.302 326.044 309.459 328.33 309.459ZM255.741 313.886C255.442 314.592 255.145 315.302 254.847 316.008C254.059 317.344 252.993 318.406 251.659 319.193C250.952 319.492 250.247 319.79 249.535 320.089C248.847 320.304 248.159 320.412 247.472 320.412C246.979 320.412 246.488 320.362 245.997 320.246C244.813 320.196 243.71 319.848 242.691 319.193C241.657 318.638 240.825 317.875 240.2 316.907C239.412 316.049 238.885 315.045 238.608 313.886L238.511 313.351C238.089 311.776 238.089 310.203 238.511 308.628C238.808 307.921 239.11 307.212 239.408 306.505C240.196 305.171 241.261 304.109 242.592 303.321C243.302 303.019 244.009 302.721 244.715 302.423C245.402 302.207 246.091 302.1 246.779 302.1C247.273 302.1 247.766 302.155 248.258 302.264C249.438 302.317 250.54 302.672 251.561 303.321C252.598 303.876 253.427 304.639 254.055 305.607C254.839 306.465 255.369 307.472 255.643 308.628L255.741 309.162C256.165 310.739 256.165 312.314 255.741 313.886ZM298.313 318.696C295.831 319.077 293.438 319.243 291.13 319.243C260.652 319.243 245.286 288.92 245.286 288.92L226.664 305.346C226.664 305.346 245.843 351.352 293.384 351.352C295.601 351.352 297.887 351.253 300.228 351.045C354.305 346.195 357.338 284.571 357.338 284.571L337.119 279.996C337.119 279.996 331.167 313.747 298.313 318.696Z" fill="#AAAEDF"/>
<path d="M255.643 308.628C255.369 307.472 254.839 306.465 254.055 305.607C253.427 304.639 252.598 303.876 251.561 303.321C250.54 302.672 249.438 302.317 248.258 302.264C247.766 302.155 247.273 302.1 246.779 302.1C246.091 302.1 245.402 302.207 244.715 302.423C244.009 302.721 243.302 303.019 242.592 303.321C241.261 304.109 240.196 305.171 239.408 306.505C239.11 307.212 238.808 307.921 238.51 308.628C238.089 310.203 238.089 311.776 238.51 313.351L238.608 313.886C238.885 315.045 239.412 316.049 240.2 316.907C240.825 317.875 241.657 318.638 242.691 319.193C243.71 319.848 244.813 320.196 245.997 320.246C246.488 320.362 246.979 320.412 247.472 320.412C248.159 320.412 248.847 320.304 249.535 320.089C250.247 319.79 250.952 319.492 251.659 319.193C252.993 318.406 254.058 317.344 254.847 316.008C255.145 315.302 255.442 314.592 255.741 313.886C256.165 312.314 256.165 310.739 255.741 309.163L255.643 308.628Z" fill="white"/>
<path d="M251.315 261.425C256.262 261.425 261.194 260.33 265.493 257.919C276.405 251.804 281.389 238.406 281.552 225.898C281.749 211.1 275.915 195.854 264.338 186.636C258.01 181.596 248.868 178.387 240.171 178.387C231.296 178.387 222.885 181.728 218.401 189.874C211.265 202.826 209.005 218.722 213.768 232.723C218.528 246.726 230.746 258.323 245.307 260.895C247.284 261.244 249.301 261.425 251.315 261.425Z" fill="white"/>
<path d="M337.119 279.996L357.338 284.571C357.338 284.571 354.305 346.195 300.228 351.045C297.887 351.253 295.601 351.352 293.384 351.352C245.843 351.352 226.664 305.346 226.664 305.346L245.286 288.92C245.286 288.92 260.652 319.243 291.13 319.243C293.438 319.243 295.831 319.077 298.313 318.696C331.167 313.747 337.119 279.996 337.119 279.996ZM213.768 232.723C209.005 218.722 211.265 202.826 218.401 189.874C222.885 181.728 231.296 178.387 240.171 178.387C248.868 178.387 258.01 181.596 264.338 186.636C275.915 195.854 281.749 211.1 281.552 225.898C281.389 238.406 276.405 251.804 265.493 257.919C261.194 260.33 256.262 261.425 251.315 261.425C249.301 261.425 247.284 261.244 245.307 260.895C230.746 258.323 218.528 246.726 213.768 232.723ZM381.806 243.166C381.806 243.166 355.901 183.734 333.698 168.381C322.823 160.869 296.3 151.426 265.106 151.426C232.611 151.426 195.048 161.665 164.798 194.981C147.355 214.186 140.628 237.125 140.628 237.125C143.787 254.254 179.445 295.23 179.445 295.23C179.445 295.23 179.167 293.98 178.802 291.729C176.314 276.408 169.759 214.694 218.908 184.883C206.003 201.559 202.468 227.663 202.97 247.179C203.636 272.979 213.017 299.709 228.697 321.075C234.656 329.2 241.522 336.545 249.169 342.771C258.566 350.432 271.302 358.623 283.332 360.09C287.517 360.604 291.455 360.853 295.167 360.853C320.688 360.853 335.693 349.172 348.847 331.032C361.212 313.98 364.534 292.107 363.632 271.468C362.497 245.415 354.554 217.914 339.772 196.257C338.579 194.507 337.337 192.78 336.043 191.092C340.031 193.9 344.07 197.072 348.095 200.64C359.818 211.031 371.481 224.832 381.806 243.166Z" fill="#1E2131"/>
<path d="M233.399 369.301C233.408 369.301 233.42 369.309 233.429 369.309C252.532 378.197 270.591 381.447 286.813 381.447C330.057 381.447 360.163 358.316 361.656 357.147C361.694 357.114 361.714 357.097 361.714 357.097C361.713 357.097 361.712 357.097 361.712 357.097C332.131 368.795 298.263 371.573 272.749 371.573C249.65 371.573 233.399 369.301 233.399 369.301Z" fill="#1E2131"/>
<path d="M278.824 323.678C279.059 323.77 279.157 323.828 279.143 323.828C279.131 323.828 279.017 323.778 278.824 323.678ZM315.72 317.908C315.373 318.165 315.02 318.414 314.663 318.671C313.646 319.392 312.602 320.064 311.532 320.702C310.47 321.332 309.389 321.929 308.278 322.468C307.959 322.625 307.637 322.775 307.313 322.924C307.357 322.907 307.373 322.891 307.368 322.891C307.335 322.891 306.43 323.264 306.225 323.347C303.821 324.217 301.339 324.864 298.82 325.312C298.722 325.328 298.016 325.428 297.715 325.477C297.387 325.511 296.892 325.56 296.799 325.569C295.664 325.668 294.521 325.734 293.382 325.759C292.919 325.776 292.454 325.776 291.99 325.776C289.968 325.776 287.952 325.668 285.937 325.469C285.497 325.419 285.184 325.361 285.23 325.361C285.257 325.361 285.422 325.386 285.777 325.444C285.083 325.328 284.394 325.204 283.704 325.063C282.626 324.831 281.552 324.565 280.499 324.242C279.929 324.068 279.361 323.869 278.799 323.662C278.734 323.629 278.659 323.587 278.577 323.537C277.486 322.924 276.442 322.335 275.438 321.581C274.249 320.685 272.793 320.288 271.294 320.288C268.089 320.288 264.689 322.103 263.284 324.756C260.819 329.432 262.488 333.925 266.469 336.918C273.103 341.901 281.954 343.584 290.577 343.584C294.753 343.584 298.875 343.186 302.669 342.589C315.189 340.616 325.934 333.511 334.649 324.574C338 321.141 338.075 315.437 334.649 312.017C332.956 310.321 330.641 309.459 328.33 309.459C326.044 309.459 323.762 310.302 322.089 312.017C320.214 313.934 318.251 315.714 316.235 317.477C316.047 317.643 315.829 317.817 315.72 317.908Z" fill="#D3D4EE"/>
<path d="M504.53 396.162C486.384 376.563 506.223 357.694 506.223 357.694C464.123 364.219 504.53 396.162 504.53 396.162Z" fill="#1E2131"/>
<path d="M603.983 144.836C666.505 110.471 735.146 102.388 785.914 102.396C831.03 102.396 862.037 108.78 862.037 108.78C816.522 93.8075 778.004 88.3523 745.926 88.3523C694.874 88.3606 660.167 102.181 639.715 113.448C620.969 123.786 603.983 144.836 603.983 144.836Z" fill="#1E2131"/>
<path d="M377.828 125.461C377.828 125.461 357.873 107.197 337.785 99.7932C321.947 93.965 298.545 87.9295 267.738 87.9295C229.136 87.9295 178.902 97.3972 117.289 128.586C117.289 128.586 179.462 105.605 259.067 105.605C296.362 105.605 337.471 110.646 377.828 125.461Z" fill="#1E2131"/>
<path d="M836.336 291.148L862.476 265.97L841.476 268.925C831.677 263.246 813.181 254.255 790.365 248.17C774.158 241.65 752.724 235.714 728.4 235.714C693.4 235.714 652.426 247.996 612.416 288.503C612.416 288.503 647.624 258.525 701.277 248.115C698.89 248.892 696.512 249.747 694.138 250.685C624.794 278.114 596.398 318.016 596.398 318.016C596.398 318.016 661.935 265.413 743.573 265.413C773.163 265.413 804.866 272.319 836.336 291.148Z" fill="#1E2131"/>
</svg>
